<svg width="110" height="75" viewBox="0 0 110 75" fill="none" xmlns="http://www.w3.org/2000/svg">
<path d="M70.1585 53.3673L36.704 37.8567C36.2083 37.6268 35.7885 37.2603 35.4939 36.8001C35.1992 36.34 35.042 35.8053 35.0407 35.2589V1.73381C35.0394 1.33746 34.9027 0.953445 34.6534 0.645335C34.404 0.337225 34.057 0.12349 33.6696 0.0395056C33.2823 -0.0444787 32.8778 0.00632307 32.5233 0.183503C32.1687 0.360682 31.8853 0.653616 31.7199 1.01382L0.157957 70.0711C0.0108805 70.3919 -0.0349377 70.75 0.0266027 71.0976C0.0881431 71.4451 0.254121 71.7657 0.502429 72.0166C0.750737 72.2674 1.06958 72.4367 1.4165 72.5018C1.76342 72.5669 2.12193 72.5247 2.44429 72.3809L33.8681 58.4308C34.2345 58.2679 34.631 58.1838 35.0319 58.1838C35.4328 58.1838 35.8293 58.2679 36.1956 58.4308L69.3768 73.1685C69.6417 73.2859 69.9316 73.3354 70.2204 73.3124C70.5092 73.2893 70.7876 73.1946 71.0305 73.0366C71.2734 72.8787 71.473 72.6627 71.6112 72.408C71.7494 72.1534 71.8218 71.8683 71.8219 71.5786V55.971C71.8217 55.4236 71.665 54.8877 71.3703 54.4264C71.0756 53.9651 70.6552 53.5976 70.1585 53.3673Z" fill="#23D3D3"/>
<path d="M39.7838 21.2733L73.2413 36.7869C73.7375 37.0165 74.1577 37.3835 74.4519 37.8444C74.7462 38.3053 74.9022 38.8408 74.9016 39.3876V72.9068C74.9023 73.3034 75.0385 73.6879 75.2876 73.9965C75.5367 74.3051 75.8838 74.5194 76.2713 74.6037C76.6588 74.6881 77.0636 74.6375 77.4184 74.4604C77.7733 74.2832 78.0569 73.9902 78.2224 73.6297L109.773 4.57249C109.919 4.25151 109.964 3.89364 109.902 3.54635C109.841 3.19905 109.675 2.87873 109.427 2.62787C109.179 2.37701 108.86 2.20746 108.514 2.14171C108.167 2.07596 107.809 2.11711 107.486 2.25971L76.0683 16.2099C75.7014 16.3726 75.3045 16.4567 74.9031 16.4567C74.5017 16.4567 74.1048 16.3726 73.7379 16.2099L40.5655 1.48388C40.3011 1.36638 40.0115 1.31681 39.7231 1.33965C39.4346 1.3625 39.1565 1.45704 38.9139 1.6147C38.6713 1.77236 38.4719 1.98813 38.3338 2.24242C38.1958 2.49671 38.1235 2.78146 38.1234 3.0708V18.6725C38.1232 19.2193 38.2794 19.7547 38.5736 20.2155C38.8678 20.6763 39.2878 21.0434 39.7838 21.2733Z" fill="#23D3D3"/>
</svg>
